<svg xmlns="http://www.w3.org/2000/svg" width="32" height="32" viewBox="0 0 32 32">
    <g fill="none" fill-rule="evenodd">
        <circle cx="16" cy="16" r="16" fill="#DD4B39"/>
        <path fill="#FFF" d="M24 15.838h-2.154v2.202h-1.23v-2.202h-2.103V14.55h2.102v-2.255h1.231v2.255H24v1.288zm-8.755-7.08c.125.081.267.201.423.358.151.164.299.366.443.605.138.226.26.492.367.8.088.307.132.666.132 1.076-.012.751-.17 1.353-.474 1.804a5.6 5.6 0 0 1-.473.605c-.185.184-.381.372-.59.563-.119.13-.229.277-.33.44-.12.172-.179.37-.179.596 0 .218.062.4.184.543.103.137.204.256.302.359l.678.584c.422.363.791.762 1.109 1.2.3.444.455 1.025.467 1.742 0 1.018-.427 1.92-1.283 2.706-.887.813-2.167 1.233-3.84 1.261-1.4-.015-2.444-.328-3.135-.941C8.349 22.485 8 21.8 8 21c0-.388.114-.82.34-1.298.22-.478.619-.897 1.195-1.259a6.002 6.002 0 0 1 2.04-.777c.706-.11 1.292-.171 1.758-.185a4.575 4.575 0 0 1-.385-.638 1.523 1.523 0 0 1-.198-.794c0-.186.026-.34.076-.464l.122-.36c-.227.027-.44.04-.642.04-1.064-.013-1.875-.365-2.433-1.056a3.231 3.231 0 0 1-.876-2.244c0-1.031.414-1.967 1.24-2.808.569-.491 1.16-.813 1.772-.963A8.201 8.201 0 0 1 13.714 8h3.998l-1.234.758h-1.233zm-2.598 9.338c-.414.062-.837.16-1.27.298-.102.04-.245.102-.43.184a2.604 2.604 0 0 0-.562.38 2.2 2.2 0 0 0-.468.636c-.147.266-.22.587-.22.963 0 .738.318 1.346.955 1.825.605.478 1.432.724 2.482.738.942-.014 1.661-.232 2.158-.656.483-.417.725-.953.725-1.61 0-.533-.165-.998-.496-1.394-.35-.376-.898-.837-1.643-1.384a4.172 4.172 0 0 0-.448-.02c-.102-.014-.363 0-.783.04zm1.663-8.033a2.76 2.76 0 0 0-.746-.987 1.854 1.854 0 0 0-1.087-.38c-.541.013-.992.243-1.351.688a2.692 2.692 0 0 0-.435 1.561c0 .76.212 1.551.636 2.373.204.383.468.71.792.976.324.267.695.4 1.11.4.527-.02.965-.219 1.317-.596.168-.267.278-.54.326-.82.029-.282.043-.518.043-.71 0-.828-.201-1.663-.605-2.505z"/>
    </g>
</svg>
